<svg xmlns="http://www.w3.org/2000/svg" width="15.97" height="9" viewBox="0 0 15.97 9">
  <metadata><?xpacket begin="﻿" id="W5M0MpCehiHzreSzNTczkc9d"?>
<x:xmpmeta xmlns:x="adobe:ns:meta/" x:xmptk="Adobe XMP Core 5.6-c142 79.160924, 2017/07/13-01:06:39        ">
   <rdf:RDF xmlns:rdf="http://www.w3.org/1999/02/22-rdf-syntax-ns#">
      <rdf:Description rdf:about=""/>
   </rdf:RDF>
</x:xmpmeta>
                                                                                                    
                                                                                                    
                                                                                                    
                                                                                                    
                                                                                                    
                                                                                                    
                                                                                                    
                                                                                                    
                                                                                                    
                                                                                                    
                                                                                                    
                                                                                                    
                                                                                                    
                                                                                                    
                                                                                                    
                                                                                                    
                                                                                                    
                                                                                                    
                                                                                                    
                                                                                                    
                           
<?xpacket end="w"?></metadata>
<defs>
    <style>
      .cls-1 {
        fill: #c0c1c4;
        fill-rule: evenodd;
      }
    </style>
  </defs>
  <path id="read" class="cls-1" d="M1208.79,528.953c-0.14-.162-3.5-3.953-7.79-3.953s-7.65,3.791-7.8,3.953a0.84,0.84,0,0,0,0,1.094c0.15,0.162,3.5,3.952,7.8,3.952s7.65-3.791,7.79-3.952A0.817,0.817,0,0,0,1208.79,528.953Zm-7.79,3.673c-3,0-5.53-2.246-6.4-3.126a11.949,11.949,0,0,1,3.67-2.539,3.1,3.1,0,0,0-.54,1.747,3.266,3.266,0,0,0,6.53,0,3.1,3.1,0,0,0-.53-1.747,12.006,12.006,0,0,1,3.66,2.539C1206.52,530.38,1204,532.626,1201,532.626Z" transform="translate(-1193.03 -525)"/>
</svg>
